<?xml version="1.0" standalone="no"?>
<!DOCTYPE svg PUBLIC "-//W3C//DTD SVG 20010904//EN"
 "http://www.w3.org/TR/2001/REC-SVG-20010904/DTD/svg10.dtd">
<svg version="1.0" xmlns="http://www.w3.org/2000/svg"
 width="278.000000pt" height="181.000000pt" viewBox="0 0 278.000000 181.000000"
 preserveAspectRatio="xMidYMid meet">
<metadata>
Created by potrace 1.16, written by Peter Selinger 2001-2019
</metadata>
<g transform="translate(0.000000,181.000000) scale(0.100000,-0.100000)"
fill="#000000" stroke="none">
<path d="M1267 1563 c-4 -3 -7 -223 -7 -488 l0 -482 -46 15 c-38 12 -55 13
-98 3 -115 -26 -218 -117 -231 -205 -24 -157 190 -190 343 -52 73 67 72 57 72
492 l0 388 36 -35 c59 -56 123 -144 156 -214 28 -61 30 -73 26 -148 -3 -47
-15 -113 -28 -155 -18 -53 -21 -75 -13 -83 22 -22 42 1 65 73 18 58 23 96 23
188 0 111 -1 117 -36 190 -19 41 -59 113 -89 160 -77 123 -117 212 -130 291
-11 64 -24 82 -43 62z"/>
<path d="M1754 662 c-15 -10 -34 -47 -34 -67 0 -24 46 -65 73 -65 57 0 88 79
47 120 -20 20 -65 26 -86 12z"/>
</g>
</svg>
